<svg xmlns="http://www.w3.org/2000/svg" width="18" height="18" fill="currentColor"><path stroke="#6CDB7E" d="M9.217 4.028c2.538.716 3.652 1.636 4.757 4.757M9.648 1C13.804 2.245 15.595 3.625 17 8.352M1.367 3.66 2.495 2.53a1 1 0 0 1 1.372-.04L6.33 4.68a1 1 0 0 1 .104 1.387l-1.026 1.23a.994.994 0 0 0-.018 1.255c1.418 1.788 2.467 2.929 4.466 4.164a.972.972 0 0 0 1.198-.15l.482-.482a1 1 0 0 1 1.414 0l2.046 2.046a1 1 0 0 1 0 1.414l-1.044 1.043a.994.994 0 0 1-.974.254C5.304 14.643 2.478 11.93 1.093 4.54a.99.99 0 0 1 .274-.88Z"/></svg>
