<svg xmlns="http://www.w3.org/2000/svg" xmlns:xlink="http://www.w3.org/1999/xlink"><symbol id="arrow-ahead"><path d="m1.443.983 6.111 5.528-6.11 5.22" stroke="#4798DE" stroke-width="2"/></symbol><symbol id="arrow-back"><path d="M8.555 11.731 2.444 6.204l6.11-5.22" stroke="#4798DE" stroke-width="2"/></symbol><symbol id="arrow-left"><path d="M8.555 13.32 2.444 7.332l6.11-5.655" stroke="#4798DE" stroke-width="2"/></symbol><symbol id="arrow-right"><path d="m1.443 1.678 6.111 5.987-6.11 5.654" stroke="#4798DE" stroke-width="2"/></symbol><symbol id="cart"><path stroke="#4798DE" stroke-linecap="square" d="M5 5h12.5l-1.25 7.5h-10L5 5Zm2.5 11.667A.833.833 0 1 0 7.5 15a.833.833 0 0 0 0 1.667Zm7.5 0A.833.833 0 1 0 15 15a.833.833 0 0 0 0 1.667ZM5 5H2.5"/></symbol><symbol id="catalog"><ellipse cx="2.191" cy="2.258" rx="2.191" ry="2.258" fill="#4798DE"/><ellipse cx="2.191" cy="10" rx="2.191" ry="2.258" fill="#4798DE"/><ellipse cx="2.191" cy="17.742" rx="2.191" ry="2.258" fill="#4798DE"/><ellipse cx="9.702" cy="2.258" rx="2.191" ry="2.258" fill="#4798DE"/><ellipse cx="9.702" cy="10" rx="2.191" ry="2.258" fill="#4798DE"/><ellipse cx="9.702" cy="17.742" rx="2.191" ry="2.258" fill="#4798DE"/><ellipse cx="17.212" cy="2.258" rx="2.191" ry="2.258" fill="#4798DE"/><ellipse cx="17.212" cy="10" rx="2.191" ry="2.258" fill="#4798DE"/><ellipse cx="17.212" cy="17.742" rx="2.191" ry="2.258" fill="#4798DE"/></symbol><symbol id="favorite"><path d="m7.5 13.875-1.028-.917C2.824 9.713.416 7.573.416 4.947c0-2.14 1.714-3.822 3.896-3.822 1.232 0 2.415.563 3.187 1.452a4.276 4.276 0 0 1 3.188-1.452c2.181 0 3.896 1.681 3.896 3.822 0 2.626-2.409 4.766-6.057 8.018l-1.027.91Z" stroke="#4798DE" stroke-linecap="square"/></symbol><symbol id="menu"><path stroke="#6F7682" stroke-width="2" d="M0 15h20M0 8h20M0 1h20"/></symbol><symbol id="phone"><path stroke="#6CDB7E" d="M9.217 4.028c2.538.716 3.652 1.636 4.757 4.757M9.648 1C13.804 2.245 15.595 3.625 17 8.352M1.367 3.66l1.128-1.13a1 1 0 0 1 1.372-.04L6.33 4.68a1 1 0 0 1 .104 1.387l-1.026 1.23a.994.994 0 0 0-.018 1.255c1.418 1.788 2.467 2.929 4.466 4.164a.972.972 0 0 0 1.198-.15l.482-.482a1 1 0 0 1 1.414 0l2.046 2.046a1 1 0 0 1 0 1.414l-1.044 1.043a.994.994 0 0 1-.974.254C5.304 14.643 2.478 11.93 1.093 4.54a.99.99 0 0 1 .274-.88Z"/></symbol><symbol id="search"><path d="m12.01 12.01 4.656 4.657M8.334 13.334a5 5 0 1 0 0-10 5 5 0 0 0 0 10Z" stroke="#fff" stroke-width="2" stroke-linecap="square"/></symbol><symbol id="user"><path stroke="#4798DE" stroke-linecap="round" d="M4.584 16.25c1.944-.833 3.194-1.528 3.75-2.083.833-.834-1.667-.834-1.667-5C6.667 6.389 7.778 5 10.001 5c2.222 0 3.333 1.389 3.333 4.167 0 4.166-2.5 4.166-1.667 5 .556.555 1.806 1.25 3.75 2.083"/><path stroke="#4798DE" stroke-linecap="square" d="M10 18.333a8.333 8.333 0 1 0 0-16.667 8.333 8.333 0 0 0 0 16.667Z"/></symbol></svg>